<svg width="81" height="86" viewBox="0 0 81 86" fill="none" xmlns="http://www.w3.org/2000/svg">
<path fill-rule="evenodd" clip-rule="evenodd" d="M18.176 74.368C18.176 71.8933 18.6453 69.376 19.584 66.816L27.6843 43.2627C27.9272 43.3873 28.1711 43.5158 28.416 43.648C32.768 45.952 36.5653 48.9813 39.808 52.736C46.2098 59.8959 51.0733 67.43 54.3986 75.3382L56.96 83.712H47.488V85.76H80.256V83.712H71.168L45.312 0H44.928C42.1973 0 40.2347 1.19467 39.04 3.584C38.528 4.52266 37.9733 5.93066 37.376 7.808L26.2356 39.9989C22.6736 38.5916 19.0484 37.888 15.36 37.888C10.9227 37.888 7.25333 39.1253 4.352 41.6C1.536 44.0747 0.128 46.8907 0.128 50.048C0.128 53.12 1.024 55.5947 2.816 57.472C4.69333 59.3493 6.784 60.288 9.088 60.288C11.4773 60.288 13.5253 59.52 15.232 57.984C16.9387 56.448 17.792 54.4853 17.792 52.096C17.792 49.7067 17.152 47.872 15.872 46.592C14.592 45.312 13.0133 44.672 11.136 44.672C8.14933 44.672 6.144 45.9947 5.12 48.64C4.864 49.3227 4.43733 49.664 3.84 49.664C2.98667 49.664 2.64533 49.2373 2.816 48.384C3.15733 45.824 4.608 43.8187 7.168 42.368C9.728 40.9173 12.8427 40.192 16.512 40.192C19.322 40.192 22.3071 40.8676 25.4674 42.2188L16.512 68.096C14.72 73.472 12.6293 77.44 10.24 80C7.936 82.4747 4.52267 83.712 0 83.712V85.76H37.888V83.712H35.712C30.7627 83.712 26.7947 83.328 23.808 82.56C21.8453 82.048 20.3947 81.152 19.456 79.872C18.6027 78.592 18.176 76.7573 18.176 74.368ZM28.4701 40.978L27.6843 43.2627C26.936 42.8787 26.197 42.5307 25.4674 42.2188L26.2356 39.9989C26.9832 40.2943 27.728 40.6207 28.4701 40.978ZM28.4701 40.978L36.224 18.432H36.992L50.5004 62.5942C47.0544 56.7996 43.0636 51.8922 38.528 47.872C35.2342 44.9189 31.8815 42.6209 28.4701 40.978ZM50.5004 62.5942C52.7598 66.3934 54.785 70.574 56.576 75.136L54.528 75.648C54.4851 75.5447 54.442 75.4414 54.3986 75.3382L50.5004 62.5942ZM36.372 74.76C40.5141 74.76 43.872 71.4021 43.872 67.26C43.872 63.1179 40.5141 59.76 36.372 59.76C32.2299 59.76 28.872 63.1179 28.872 67.26C28.872 71.4021 32.2299 74.76 36.372 74.76Z" fill="#9C27B0"/>
</svg>
